<svg width="760" height="759" xmlns="http://www.w3.org/2000/svg" xmlns:xlink="http://www.w3.org/1999/xlink" xml:space="preserve" overflow="hidden"><defs><clipPath id="clip0"><rect x="200" y="0" width="760" height="759"/></clipPath></defs><g clip-path="url(#clip0)" transform="translate(-200 0)"><path d="M47.4375 577.156 711.562 577.156 711.562 592.969 47.4375 592.969Z" stroke="#FFFFFF" stroke-width="7.90625" fill="#FFFFFF" transform="matrix(1.00132 0 0 1 200 0)"/><path d="M106.908 353.892C110.912 360.711 117.999 365.14 125.883 365.751L186.501 370.424C200.442 371.478 214.388 372.005 228.34 372.005 265.903 372.005 303.365 368.115 340.127 360.398L646.581 296.089C646.581 296.089 705.767 283.668 699.553 254.075 696.264 238.437 645.126 223.241 616.814 223.241 613.439 223.194 610.067 223.486 606.749 224.111L423.301 262.661 205.349 164.814C202.231 163.416 198.852 162.694 195.435 162.695 193.766 162.696 192.103 162.869 190.469 163.209L163.051 168.964C159.785 169.644 157.689 172.843 158.369 176.109 158.648 177.449 159.373 178.654 160.426 179.527L293.085 289.985 162.869 317.309 94.3216 258.598C90.0395 254.941 84.3028 253.481 78.7937 254.645L60.0875 258.534C56.8283 259.246 54.7634 262.465 55.4752 265.724 55.6064 266.325 55.8287 266.903 56.1344 267.437ZM303.205 277.834 186.192 180.397C186.121 180.342 186.137 180.278 186.192 180.262L193.695 178.681C195.426 178.313 197.229 178.507 198.842 179.235L416.825 277.082 421.514 279.186 426.55 278.134 610.03 239.631C612.278 239.222 614.562 239.042 616.846 239.093 641.837 239.093 677.115 251.308 684.175 258.503 683.574 266.188 662.188 276.687 643.355 280.64L336.901 344.965C301.207 352.447 264.835 356.222 228.364 356.232 214.868 356.232 201.198 355.702 187.742 354.651L127.117 349.978C124.384 349.763 121.929 348.228 120.539 345.867L76.6906 271.224 82.0748 270.093C82.2313 270.062 82.3902 270.046 82.5492 270.046 83.1066 270.044 83.6458 270.243 84.0672 270.607L152.614 329.319 158.528 334.387 166.15 332.806 296.366 305.482 308.138 303.007 322.694 314.961C326.069 317.732 331.051 317.241 333.822 313.866 336.592 310.491 336.102 305.509 332.727 302.738Z" stroke="#FFFFFF" stroke-width="7.90625" fill="#FFFFFF" transform="matrix(1.00132 0 0 1 200 0)"/></g></svg>